<?xml version="1.0" standalone="no"?><!DOCTYPE svg PUBLIC "-//W3C//DTD SVG 1.1//EN" "http://www.w3.org/Graphics/SVG/1.1/DTD/svg11.dtd"><svg t="1531981288497" class="icon" style="" viewBox="0 0 1024 1024" version="1.1" xmlns="http://www.w3.org/2000/svg" p-id="1076" xmlns:xlink="http://www.w3.org/1999/xlink" width="200" height="200"><defs><style type="text/css"></style></defs><path d="M947.393251 423.541319c24.514323-14.646582 25.204032-25.860994 25.204032-45.37749L972.597283 242.051825c0-37.591153-33.858132-68.056002-75.626421-68.056002L140.769071 173.995823c-41.754986 0-75.613118 30.465872-75.613118 68.056002l0 136.110981c0 20.336164 1.570775 33.892925 25.211195 45.37749 34.42709 14.430664 75.605955 43.590797 75.605955 90.74884 0 61.196781-42.729174 81.09804-74.124208 90.639347-22.10853 12.447497-26.692942 32.94432-26.692942 45.471634l0 136.113027c0 37.60241 33.858132 68.070328 75.613118 68.070328l756.208954 0c41.762149 0 75.620281-30.473035 75.620281-68.070328L972.598306 650.40114c0-24.778336-6.324032-32.632211-25.204032-45.376467-55.06206-25.537629-75.620281-48.276517-75.620281-90.734514C871.77297 471.817836 891.024429 450.688609 947.393251 423.541319L947.393251 423.541319zM670.117181 502.947833c0 6.256494-5.641487 11.342326-12.610202 11.342326L544.081673 514.290159l0 45.37135 113.425306 0c6.968715 0 12.610202 5.077645 12.610202 11.342326l0 22.685675c0 6.263657-5.641487 11.342326-12.610202 11.342326L544.081673 605.031836l0 79.404468c0 6.258541-5.641487 11.342326-12.603039 11.342326l-25.211195 0c-6.955412 0-12.600993-5.084808-12.600993-11.342326l0-79.404468L380.239094 605.031836c-6.968715 0-12.603039-5.079692-12.603039-11.342326l0-22.685675c0-6.264681 5.634324-11.342326 12.603039-11.342326l113.427352 0 0-45.37135L380.239094 514.290159c-6.968715 0-12.603039-5.085832-12.603039-11.342326l0-22.692838c0-6.263657 5.634324-11.349489 12.603039-11.349489l95.427396 0-103.601566-100.167351c-4.428869-4.361331-4.428869-11.431354 0-15.792685l16.042371-15.790638c4.428869-4.361331 11.613502-4.361331 16.042371 0l114.604154 110.812805 114.558106-110.778013c4.462638-4.396123 11.701506-4.396123 16.170285 0l16.165168 15.912411c4.468778 4.40124 4.468778 11.526521 0 15.920598L562.344618 468.912669l95.16236 0c6.961552 0 12.610202 5.079692 12.610202 11.342326L670.117181 502.947833 670.117181 502.947833 670.117181 502.947833zM670.117181 502.947833" p-id="1077" fill="#d81e06"></path></svg>